<?xml version="1.0" encoding="utf-8"?>
<!-- Generator: Adobe Illustrator 16.0.0, SVG Export Plug-In . SVG Version: 6.00 Build 0)  -->
<!DOCTYPE svg PUBLIC "-//W3C//DTD SVG 1.1//EN" "http://www.w3.org/Graphics/SVG/1.1/DTD/svg11.dtd">
<svg version="1.1" id="Camada_2" xmlns="http://www.w3.org/2000/svg" xmlns:xlink="http://www.w3.org/1999/xlink" x="0px" y="0px"
	 width="441.674px" height="118px" viewBox="0 0 441.674 118" enable-background="new 0 0 441.674 118" xml:space="preserve">
<text transform="matrix(1 0 0 1 132.0002 62.1191)" fill="#FFFFFF" font-family="'DancingScript'" font-size="61">Neat as Wine</text>
<text transform="matrix(1 0 0 1 132.0002 62.1191)" fill="none" stroke="#FFFFFF" stroke-miterlimit="10" font-family="'DancingScript'" font-size="61">Neat as Wine</text>
<text transform="matrix(1 0 0 1 134.3533 100.8418)" fill="#FFFFFF" font-family="'AngelToes'" font-size="22">Data elegant, charming. Neat.</text>
<text transform="matrix(1 0 0 1 134.3533 100.8418)" fill="none" stroke="#FFFFFF" font-family="'AngelToes'" font-size="22">Data elegant, charming. Neat.</text>
<g>
	<g>
		<g>
			<path fill="#FFFFFF" stroke="#FFFFFF" stroke-miterlimit="10" d="M49.916,97.309c0.758,0.168,1.544,0.26,2.371,0.26
				c0.825,0,1.612-0.092,2.37-0.26c0.171-0.039,0.329-0.111,0.497-0.156l-0.317-2.237c-0.792,0.218-1.625,0.319-2.505,0.319
				c-3.613,0-6.543-1.668-8.698-6.299c-0.227-0.465-0.444-0.973-0.647-1.527c-2.655-6.782-4.021-17.021-4.071-31.843H49.1
				c0.128-0.817,0.411-1.578,0.821-2.255H38.134h-1.417H7v0.835c0,27.324,4.211,41.173,13.198,43.164
				c0.758,0.168,1.544,0.262,2.37,0.262c0.825,0,1.613-0.094,2.369-0.262c6.883-1.523,10.955-10.035,12.489-26.203
				C38.959,87.271,43.033,95.783,49.916,97.309z M31.877,87.391c-0.207,0.566-0.431,1.086-0.664,1.562
				c-2.154,4.62-4.991,6.282-8.602,6.282c-3.613,0-6.544-1.668-8.697-6.299c-0.229-0.465-0.444-0.973-0.648-1.527
				c-2.656-6.782-4.021-17.021-4.071-31.843h26.743C35.891,70.375,34.527,80.605,31.877,87.391z"/>
			<path fill="#FFFFFF" stroke="#FFFFFF" stroke-miterlimit="10" d="M52.331,93.088c0.738,0,1.471-0.133,2.189-0.41l-2.96-20.859
				h-9.563C43.414,88.454,47.961,93.088,52.331,93.088z"/>
			<path fill="#FFFFFF" stroke="#FFFFFF" stroke-miterlimit="10" d="M44.053,119h14.203l-0.503-3.553h-3.094V99.243
				c-0.776,0.161-1.566,0.243-2.369,0.243c-0.805,0-1.597-0.084-2.37-0.243v16.204h-5.862c-0.808,0-1.463,0.498-1.463,1.111v1.328
				C42.591,118.502,43.244,119,44.053,119z"/>
			<path fill="#FFFFFF" stroke="#FFFFFF" stroke-miterlimit="10" d="M22.613,93.088c4.37,0,8.602-4.137,10.333-21.27H12.28
				C13.695,88.454,18.244,93.088,22.613,93.088z"/>
			<path fill="#FFFFFF" stroke="#FFFFFF" stroke-miterlimit="10" d="M22.569,99.486c-0.805,0-1.595-0.084-2.368-0.244v16.205h-5.864
				c-0.809,0-1.463,0.498-1.463,1.111v1.328c0,0.612,0.655,1.11,1.463,1.11h16.092c0.808,0,1.463-0.498,1.463-1.11v-1.328
				c0-0.613-0.655-1.111-1.463-1.111h-5.489V99.242C24.162,99.402,23.372,99.486,22.569,99.486z"/>
			<path fill="#FFFFFF" stroke="#FFFFFF" stroke-miterlimit="10" d="M111.47,49.36c0.144-0.713,0.227-1.424,0.275-2.131
				c0.011-0.16,0.023-0.322,0.027-0.481c0.098-2.446-0.356-4.818-1.272-6.972c-0.96-2.788-2.17-5.288-2.579-7.369
				c-0.841-4.276-0.252-7.503-0.252-7.503l2.387-11.476l-12.523-2.806l-2.401,11.535c0,0-0.75,3.606-3.963,6.579
				c-2.859,2.648-7.669,6.486-9.506,12.23c-0.197,0.594-0.373,1.202-0.505,1.832l-0.34,1.629l10.101,2.678l-0.521,2.255H111.47
				L111.47,49.36z"/>
			<path fill="#FFFFFF" stroke="#FFFFFF" stroke-miterlimit="10" d="M99.758,85.859c0.277,0.197,0.559,0.391,0.843,0.576
				c0.294,0.19,0.593,0.379,0.896,0.557c3.413,2.017,7.296,3.162,11.572,3.162c1.304,0,2.644-0.107,4.021-0.328
				c0.146-0.023,0.289-0.033,0.425-0.033c0.21,0,0.407,0.025,0.599,0.066l4.041-26.402c-0.598,0.168-1.216,0.288-1.864,0.288h-9.788
				h-1.007h-1.011H76.801h-1.008h-1.008h-7.131h-2.195H55.073c-0.591,0-1.155-0.097-1.702-0.235l1.179,8.309l2.676,18.855
				l0.396,2.785l0.344,2.42l1.266,8.924h56.592l1.503-9.809c-1.368,0.174-2.712,0.256-4.027,0.256
				c-6.312,0-12.021-1.939-16.833-5.424c-0.325-0.234-0.647-0.477-0.966-0.725c-0.31-0.24-0.609-0.492-0.91-0.746
				c-3.139-2.668-5.847-6.021-8.011-9.953c-6.284-0.283-6.208-10.41,0.257-10.41c4.483,0,5.897,4.875,4.249,7.961
				C93.365,79.993,96.293,83.393,99.758,85.859z"/>
			<polygon fill="#FFFFFF" stroke="#FFFFFF" stroke-miterlimit="10" points="114.58,112.932 60.385,112.93 60.758,115.557 
				61.198,118.654 61.23,118.879 113.67,118.879 			"/>
			<path fill="#FFFFFF" stroke="#FFFFFF" stroke-miterlimit="10" d="M112.671,53.309h-1.007h-1.011H78.973h-1.009h-1.01h-9.103
				H55.075c-1.383,0-2.543,0.952-2.946,2.255c-0.097,0.314-0.164,0.642-0.164,0.987c0,1.072,0.507,2.018,1.279,2.609
				c0.515,0.393,1.143,0.633,1.83,0.633h10.519h2.188h7.825h1.01h1.01h31.682h1.008h1.009h8.967c0.685,0,1.313-0.24,1.83-0.633
				c0.771-0.591,1.278-2.537,1.278-3.609c0-1.787-1.396-2.244-3.108-2.244h-7.618L112.671,53.309L112.671,53.309z"/>
			<polygon fill="#FFFFFF" stroke="#FFFFFF" stroke-miterlimit="10" points="100.762,1 99.793,7.794 99.652,8.774 99.611,9.064 
				109.409,11.258 109.525,10.938 109.865,10.002 112.143,3.721 			"/>
		</g>
	</g>
</g>
</svg>
